<svg xmlns="http://www.w3.org/2000/svg" viewBox="0 0 799 204" width="799" height="204" version="1.1" xmlns:xlink="http://www.w3.org/1999/xlink"><defs/><g transform="matrix(1, 0, 0, 1, 0, 0)"><g><g><g><path fill="none" stroke="#d3d3d3" stroke-dasharray="5px" stroke-miterlimit="10" stroke-opacity="0.8" paint-order="fill" d="M 0 0 L 1200 0"/></g><g><path fill="none" stroke="#d3d3d3" stroke-dasharray="5px" stroke-miterlimit="10" stroke-opacity="0.8" paint-order="fill" d="M 0 0 L 0 800"/></g></g><g id="_680CF799-7489-4800-9D66-CE16A7AF068E" transform="matrix(1, 0, 0, 1, 323, 75)" bpmn2nodeid="_680CF799-7489-4800-9D66-CE16A7AF068E"><g><path fill="none" stroke="none"/></g><g transform="matrix(0.125, 0, 0, 0.125, 0, 0)"><g transform="matrix(1, 0, 0, 1, 0, 0)"><path id="_680CF799-7489-4800-9D66-CE16A7AF068E?shapeType=BACKGROUND" fill="#e8fae6" stroke="none" paint-order="stroke" d="M 0 0 M 444 224 C 444 263.9 434.2 300.8 414.4 334.5 C 394.7 368.2 368 394.9 334.4 414.5 C 300.8 434.1 263.9 444 224 444 C 184.1 444 147.2 434.2 113.5 414.4 C 79.8 394.7 53.1 368 33.5 334.4 C 13.9 300.8 4 263.9 4 224 C 4 184.1 13.8 147.2 33.6 113.5 C 53.4 79.8 80.1 53.1 113.6 33.5 C 147.1 13.9 184.1 4 224 4 C 263.9 4 300.8 13.8 334.5 33.6 C 368.2 53.4 394.9 80.1 414.5 113.6 C 434.1 147.1 444 184.1 444 224 Z"/></g><g><g transform="matrix(1, 0, 0, 1, 0, 0)"><g transform="matrix(1, 0, 0, 1, 0, 0)"><path id="_680CF799-7489-4800-9D66-CE16A7AF068E?shapeType=BORDER&amp;renderType=FILL" fill="#4aa241" stroke="none" paint-order="stroke" d="M 0 0 M 224 0 C 100.3 0 0 100.3 0 224 C 0 347.7 100.3 448 224 448 C 347.7 448 448 347.7 448 224 C 448 100.3 347.7 0 224 0 Z M 0 0 M 224 432 C 109.1 432 16 338.9 16 224 C 16 109.1 109.1 16 224 16 C 338.9 16 432 109.1 432 224 C 432 338.9 338.9 432 224 432 Z"/></g></g></g></g><g transform="matrix(1, 0, 0, 1, 28, 61)"/></g><g transform="matrix(1, 0, 0, 1, 323, 75)"/><g id="_8F0998B7-6144-486D-A4F5-8290C71653D0" transform="matrix(1, 0, 0, 1, 693, 75)" bpmn2nodeid="_8F0998B7-6144-486D-A4F5-8290C71653D0"><g><path fill="none" stroke="none"/></g><g transform="matrix(0.125, 0, 0, 0.125, 0, 0)"><g transform="matrix(1, 0, 0, 1, 0, 0)"><path id="_8F0998B7-6144-486D-A4F5-8290C71653D0?shapeType=BACKGROUND" fill="#fce7e7" stroke="none" paint-order="stroke" d="M 0 0 M 444 224 C 444 263.9 434.2 300.8 414.4 334.5 C 394.7 368.2 368 394.9 334.4 414.5 C 300.8 434.1 263.9 444 224 444 C 184.1 444 147.2 434.2 113.5 414.4 C 79.8 394.7 53.1 368 33.5 334.4 C 13.9 300.8 4 263.9 4 224 C 4 184.1 13.8 147.2 33.6 113.5 C 53.4 79.8 80.1 53.1 113.6 33.5 C 147.1 13.9 184.1 4 224 4 C 263.9 4 300.8 13.8 334.5 33.6 C 368.2 53.4 394.9 80.1 414.5 113.6 C 434.1 147.1 444 184.1 444 224 Z"/></g><g><g transform="matrix(1, 0, 0, 1, 0, 0)"><g transform="matrix(1, 0, 0, 1, 0, 0)"><path id="_8F0998B7-6144-486D-A4F5-8290C71653D0?shapeType=BORDER&amp;renderType=FILL" fill="rgb(163, 0, 0)" stroke="none" paint-order="stroke" d="M 0 0 M 224 0 C 100.3 0 0 100.3 0 224 C 0 347.7 100.3 448 224 448 C 347.7 448 448 347.7 448 224 C 448 100.3 347.7 0 224 0 Z M 0 0 M 224 400 C 126.8 400 48 321.2 48 224 C 48 126.8 126.8 48 224 48 C 321.2 48 400 126.8 400 224 C 400 321.2 321.2 400 224 400 Z"/></g></g></g></g><g transform="matrix(1, 0, 0, 1, 28, 61)"/></g><g transform="matrix(1, 0, 0, 1, 693, 75)"/><g id="_B9935A8A-3F15-431C-90C9-5E7211D981EA" transform="matrix(1, 0, 0, 1, 459, 52)" bpmn2nodeid="_B9935A8A-3F15-431C-90C9-5E7211D981EA"><g><path fill="none" stroke="none"/></g><g transform="matrix(1, 0, 0, 1, 0, 0)"><path id="_B9935A8A-3F15-431C-90C9-5E7211D981EA?shapeType=BACKGROUND" fill="#ffffff" stroke="none" paint-order="stroke" d="M 2 0 L 152 0 L 152 0 A 2 2 0 0 1 154 2 L 154 100 L 154 100 A 2 2 0 0 1 152 102 L 2 102 L 2 102 A 2 2 0 0 1 0 100 L 0 2 L 0 2 A 2 2 0 0 1 2 0 Z"/></g><g transform="matrix(1, 0, 0, 1, 0, 0)"><path id="_B9935A8A-3F15-431C-90C9-5E7211D981EA?shapeType=BORDER&amp;renderType=STROKE" fill="none" stroke="rgb(0, 0, 0)" stroke-dasharray="" stroke-miterlimit="10" stroke-width="1.5" paint-order="fill" d="M 2 0 L 152 0 L 152 0 A 2 2 0 0 1 154 2 L 154 100 L 154 100 A 2 2 0 0 1 152 102 L 2 102 L 2 102 A 2 2 0 0 1 0 100 L 0 2 L 0 2 A 2 2 0 0 1 2 0 Z"/></g><g><g transform="matrix(0.06, 0, 0, 0.06, 9.4, 9.4)"><g transform="matrix(1, 0, 0, 1, 0, 0)"><path id="_B9935A8A-3F15-431C-90C9-5E7211D981EAundefined" fill="#393f44" stroke="none" paint-order="stroke" d="M 0 0 M 16 445.21 C 16 440.869 18.7843 431.129 22.0013 424.217 C 35.7676 394.64 77.2829 359.28 129 333.084 C 144.516 325.224 157.347 319.964 167.807 317.174 C 171.932 316.074 175.729 314.414 176.525 313.363 C 178.894 310.234 180.914 302.908 181.727 294.5 L 182.5 286.5 L 178.507 283.455 C 166.303 274.146 154.284 251.678 148.04 226.5 C 145.611 216.707 145.056 215.462 142.984 215.158 C 141.703 214.97 138.083 212.243 134.939 209.099 C 123.233 197.393 116.891 177.376 121.44 166.49 C 123.002 162.751 128.155 159.01 131.75 159.004 C 134.448 159 134.471 158.603 132.914 138.788 C 130.927 113.496 134.279 92.2654 143.132 74.0757 C 152.232 55.3798 167.569 42.8821 189.049 36.6595 C 210.203 30.5315 237.797 30.5315 258.951 36.6595 C 300.042 48.563 318.958 83.8063 314.955 141 C 314.32 150.075 313.624 157.788 313.409 158.14 C 313.194 158.493 314.575 159.073 316.479 159.43 C 328.929 161.766 330.986 177.018 321.496 196.621 C 316.903 206.109 309.357 214.508 304.817 215.185 C 303.023 215.453 302.293 217.146 299.943 226.5 C 296.659 239.567 294.474 245.305 287.948 257.995 C 282.491 268.606 273.035 281.109 268.108 284.229 L 264.871 286.278 L 265.518 292.889 C 266.345 301.33 268.639 309.871 270.877 312.837 C 272.067 314.415 275.002 315.79 280.063 317.139 C 291.069 320.075 303.617 325.274 321 334.102 C 369.815 358.891 410.848 393.758 425.032 422.5 C 429.07 430.682 432 440.232 432 445.21 L 432 448 L 224 448 L 16 448 L 16 445.21 Z"/></g></g></g><g transform="matrix(1, 0, 0, 1, 4.04, 13.68)"><g transform="matrix(0.04, 0, 0, 0.04, 63.36, 69.12)"><g transform="matrix(1, 0, 0, 1, 0, 0)"><path fill="none" stroke="none"/></g><g transform="matrix(1, 0, 0, 1, 0, 0)"><path fill="none" stroke="none"/></g></g></g><g transform="matrix(1, 0, 0, 1, 43.91, 43.5)"><text font-family="Open Sans" font-size="12pt" font-style="normal" font-weight="normal" text-decoration="normal" dominant-baseline="alphabetic" fill="#000000" stroke="none" text-anchor="middle" x="33.09" y="12">Changed</text></g></g><g id="_BB5AFD81-9C5A-43E7-BAB4-C4409CB96FE2" bpmn2nodeid="_BB5AFD81-9C5A-43E7-BAB4-C4409CB96FE2"><g><path fill="none" stroke="#000000" stroke-dasharray="" stroke-miterlimit="10" paint-order="fill" d="M 379 103 L 444 103"/></g><g transform="matrix(1, 0, 0, 1, 379, 103)"/><g transform="matrix(6.12323e-017, 1, -1, 6.12323e-017, 459, 98)"><path fill="#000000" stroke="#000000" stroke-dasharray="" stroke-miterlimit="10" paint-order="fill" d="M 10 15 L 0 15 L 5 0 Z"/></g><g transform="matrix(1, 0, 0, 1, 379, 93)"/></g><g id="_2F9795C2-614D-4906-878A-5FE7734EC9CF" bpmn2nodeid="_2F9795C2-614D-4906-878A-5FE7734EC9CF"><g><path fill="none" stroke="#000000" stroke-dasharray="" stroke-miterlimit="10" paint-order="fill" d="M 613 103 L 678 103"/></g><g transform="matrix(1, 0, 0, 1, 613, 103)"/><g transform="matrix(6.12323e-017, 1, -1, 6.12323e-017, 693, 98)"><path fill="#000000" stroke="#000000" stroke-dasharray="" stroke-miterlimit="10" paint-order="fill" d="M 10 15 L 0 15 L 5 0 Z"/></g><g transform="matrix(1, 0, 0, 1, 613, 93)"/></g><g transform="matrix(1, 0, 0, 1, 459, 52)"/></g></g></svg>