<svg xmlns="http://www.w3.org/2000/svg" viewBox="0 0 799 204" width="799" height="204" version="1.1" xmlns:xlink="http://www.w3.org/1999/xlink"><defs/><g transform="matrix(1, 0, 0, 1, 0, 0)"><g><g><g><path fill="none" stroke="#d3d3d3" stroke-dasharray="5px" stroke-miterlimit="10" stroke-opacity="0.8" paint-order="fill" d="M 0 0 L 1200 0"/></g><g><path fill="none" stroke="#d3d3d3" stroke-dasharray="5px" stroke-miterlimit="10" stroke-opacity="0.8" paint-order="fill" d="M 0 0 L 0 800"/></g></g><g id="_680CF799-7489-4800-9D66-CE16A7AF068E" transform="matrix(1, 0, 0, 1, 323, 75)" bpmn2nodeid="_680CF799-7489-4800-9D66-CE16A7AF068E"><g><path fill="none" stroke="none"/></g><g transform="matrix(0.125, 0, 0, 0.125, 0, 0)"><g transform="matrix(1, 0, 0, 1, 0, 0)"><path id="_680CF799-7489-4800-9D66-CE16A7AF068E?shapeType=BACKGROUND" fill="#e8fae6" stroke="none" paint-order="stroke" d="M 0 0 M 444 224 C 444 263.9 434.2 300.8 414.4 334.5 C 394.7 368.2 368 394.9 334.4 414.5 C 300.8 434.1 263.9 444 224 444 C 184.1 444 147.2 434.2 113.5 414.4 C 79.8 394.7 53.1 368 33.5 334.4 C 13.9 300.8 4 263.9 4 224 C 4 184.1 13.8 147.2 33.6 113.5 C 53.4 79.8 80.1 53.1 113.6 33.5 C 147.1 13.9 184.1 4 224 4 C 263.9 4 300.8 13.8 334.5 33.6 C 368.2 53.4 394.9 80.1 414.5 113.6 C 434.1 147.1 444 184.1 444 224 Z"/></g><g><g transform="matrix(1, 0, 0, 1, 0, 0)"><g transform="matrix(1, 0, 0, 1, 0, 0)"><path id="_680CF799-7489-4800-9D66-CE16A7AF068E?shapeType=BORDER&amp;renderType=FILL" fill="rgb(74, 162, 65)" stroke="none" paint-order="stroke" d="M 0 0 M 224 0 C 100.3 0 0 100.3 0 224 C 0 347.7 100.3 448 224 448 C 347.7 448 448 347.7 448 224 C 448 100.3 347.7 0 224 0 Z M 0 0 M 224 432 C 109.1 432 16 338.9 16 224 C 16 109.1 109.1 16 224 16 C 338.9 16 432 109.1 432 224 C 432 338.9 338.9 432 224 432 Z"/></g></g></g></g><g transform="matrix(1, 0, 0, 1, 28, 61)"/></g><g transform="matrix(1, 0, 0, 1, 323, 75)"/><g id="_B9935A8A-3F15-431C-90C9-5E7211D981EA" transform="matrix(1, 0, 0, 1, 459, 52)" bpmn2nodeid="_B9935A8A-3F15-431C-90C9-5E7211D981EA"><g><path fill="none" stroke="none"/></g><g transform="matrix(1, 0, 0, 1, 0, 0)"><path id="_B9935A8A-3F15-431C-90C9-5E7211D981EA?shapeType=BACKGROUND" fill="#ffffff" stroke="none" paint-order="stroke" d="M 2 0 L 152 0 L 152 0 A 2 2 0 0 1 154 2 L 154 100 L 154 100 A 2 2 0 0 1 152 102 L 2 102 L 2 102 A 2 2 0 0 1 0 100 L 0 2 L 0 2 A 2 2 0 0 1 2 0 Z"/></g><g transform="matrix(1, 0, 0, 1, 0, 0)"><path id="_B9935A8A-3F15-431C-90C9-5E7211D981EA?shapeType=BORDER&amp;renderType=STROKE" fill="none" stroke="rgb(255, 0, 0)" stroke-dasharray="" stroke-miterlimit="10" stroke-width="1.5" paint-order="fill" d="M 2 0 L 152 0 L 152 0 A 2 2 0 0 1 154 2 L 154 100 L 154 100 A 2 2 0 0 1 152 102 L 2 102 L 2 102 A 2 2 0 0 1 0 100 L 0 2 L 0 2 A 2 2 0 0 1 2 0 Z"/></g><g transform="matrix(1, 0, 0, 1, 60.11, 43.5)"><text font-family="Open Sans" font-size="12pt" font-style="normal" font-weight="normal" text-decoration="normal" dominant-baseline="alphabetic" fill="#000000" stroke="none" text-anchor="middle" x="16.89" y="12">Task</text></g></g><g id="_BB5AFD81-9C5A-43E7-BAB4-C4409CB96FE2" bpmn2nodeid="_BB5AFD81-9C5A-43E7-BAB4-C4409CB96FE2"><g><path fill="none" stroke="#000000" stroke-dasharray="" stroke-miterlimit="10" paint-order="fill" d="M 379 103 L 444 103"/></g><g transform="matrix(1, 0, 0, 1, 379, 103)"/><g transform="matrix(6.12323e-017, 1, -1, 6.12323e-017, 459, 98)"><path fill="#000000" stroke="#000000" stroke-dasharray="" stroke-miterlimit="10" paint-order="fill" d="M 10 15 L 0 15 L 5 0 Z"/></g><g transform="matrix(1, 0, 0, 1, 379, 93)"/></g><g transform="matrix(1, 0, 0, 1, 459, 52)"/><g id="_5B62671E-A5C6-4116-9BC6-3B15C7042FC7" transform="matrix(1, 0, 0, 1, 693, 75)" bpmn2nodeid="_5B62671E-A5C6-4116-9BC6-3B15C7042FC7"><g><path fill="none" stroke="none"/></g><g transform="matrix(0.125, 0, 0, 0.125, 0, 0)"><g transform="matrix(1, 0, 0, 1, 0, 0)"><path id="_5B62671E-A5C6-4116-9BC6-3B15C7042FC7?shapeType=BACKGROUND" fill="#fce7e7" stroke="none" paint-order="stroke" d="M 0 0 M 444 224 C 444 263.9 434.2 300.8 414.4 334.5 C 394.7 368.2 368 394.9 334.4 414.5 C 300.8 434.1 263.9 444 224 444 C 184.1 444 147.2 434.2 113.5 414.4 C 79.8 394.7 53.1 368 33.5 334.4 C 13.9 300.8 4 263.9 4 224 C 4 184.1 13.8 147.2 33.6 113.5 C 53.4 79.8 80.1 53.1 113.6 33.5 C 147.1 13.9 184.1 4 224 4 C 263.9 4 300.8 13.8 334.5 33.6 C 368.2 53.4 394.9 80.1 414.5 113.6 C 434.1 147.1 444 184.1 444 224 Z"/></g><g><g transform="matrix(1, 0, 0, 1, 0, 0)"><g transform="matrix(1, 0, 0, 1, 0, 0)"><path id="_5B62671E-A5C6-4116-9BC6-3B15C7042FC7?shapeType=BORDER&amp;renderType=FILL" fill="rgb(163, 0, 0)" stroke="none" paint-order="stroke" d="M 0 0 M 224 0 C 100.3 0 0 100.3 0 224 C 0 347.7 100.3 448 224 448 C 347.7 448 448 347.7 448 224 C 448 100.3 347.7 0 224 0 Z M 0 0 M 224 400 C 126.8 400 48 321.2 48 224 C 48 126.8 126.8 48 224 48 C 321.2 48 400 126.8 400 224 C 400 321.2 321.2 400 224 400 Z"/></g></g></g></g><g transform="matrix(1, 0, 0, 1, 28, 61)"/></g><g id="_045659CD-AA3B-419F-A30C-72E9E07DE8E3" bpmn2nodeid="_045659CD-AA3B-419F-A30C-72E9E07DE8E3"><g><path fill="none" stroke="#000000" stroke-dasharray="" stroke-miterlimit="10" paint-order="fill" d="M 613 103 L 678 103"/></g><g transform="matrix(1, 0, 0, 1, 613, 103)"/><g transform="matrix(6.12323e-017, 1, -1, 6.12323e-017, 693, 98)"><path fill="#000000" stroke="#000000" stroke-dasharray="" stroke-miterlimit="10" paint-order="fill" d="M 10 15 L 0 15 L 5 0 Z"/></g><g transform="matrix(1, 0, 0, 1, 613, 93)"/></g><g transform="matrix(1, 0, 0, 1, 693, 75)"/></g></g></svg>